%TF.GenerationSoftware,KiCad,Pcbnew,6.0.11-2627ca5db0~126~ubuntu20.04.1*%
%TF.CreationDate,2023-11-11T11:24:04-05:00*%
%TF.ProjectId,carrier-board,63617272-6965-4722-9d62-6f6172642e6b,rev?*%
%TF.SameCoordinates,Original*%
%TF.FileFunction,Copper,L2,Bot*%
%TF.FilePolarity,Positive*%
%FSLAX46Y46*%
G04 Gerber Fmt 4.6, Leading zero omitted, Abs format (unit mm)*
G04 Created by KiCad (PCBNEW 6.0.11-2627ca5db0~126~ubuntu20.04.1) date 2023-11-11 11:24:04*
%MOMM*%
%LPD*%
G01*
G04 APERTURE LIST*
%TA.AperFunction,ComponentPad*%
%ADD10O,1.700000X1.700000*%
%TD*%
%TA.AperFunction,ComponentPad*%
%ADD11R,1.700000X1.700000*%
%TD*%
%TA.AperFunction,ComponentPad*%
%ADD12C,0.800000*%
%TD*%
%TA.AperFunction,ComponentPad*%
%ADD13C,5.000000*%
%TD*%
G04 APERTURE END LIST*
D10*
%TO.P,STM1,15,Pin_15*%
%TO.N,unconnected-(STM1-Pad15)*%
X137835000Y-137820000D03*
%TO.P,STM1,14,GND*%
%TO.N,/GND*%
X137835000Y-135280000D03*
%TO.P,STM1,13,Pin_13*%
%TO.N,unconnected-(STM1-Pad13)*%
X137835000Y-132740000D03*
%TO.P,STM1,12,5V*%
%TO.N,Net-(BNO55_6P1-Pad1)*%
X137835000Y-130200000D03*
%TO.P,STM1,11,Pin_11*%
%TO.N,unconnected-(STM1-Pad11)*%
X137835000Y-127660000D03*
%TO.P,STM1,10,Pin_10*%
%TO.N,unconnected-(STM1-Pad10)*%
X137835000Y-125120000D03*
%TO.P,STM1,9,Pin_9*%
%TO.N,unconnected-(STM1-Pad9)*%
X137835000Y-122580000D03*
%TO.P,STM1,8,Pin_8*%
%TO.N,unconnected-(STM1-Pad8)*%
X137835000Y-120040000D03*
%TO.P,STM1,7,Pin_7*%
%TO.N,unconnected-(STM1-Pad7)*%
X137835000Y-117500000D03*
%TO.P,STM1,6,Pin_6*%
%TO.N,unconnected-(STM1-Pad6)*%
X137835000Y-114960000D03*
%TO.P,STM1,5,Pin_5*%
%TO.N,unconnected-(STM1-Pad5)*%
X137835000Y-112420000D03*
%TO.P,STM1,4,Pin_4*%
%TO.N,unconnected-(STM1-Pad4)*%
X137835000Y-109880000D03*
%TO.P,STM1,3,Pin_3*%
%TO.N,unconnected-(STM1-Pad3)*%
X137835000Y-107340000D03*
%TO.P,STM1,2,Pin_2*%
%TO.N,unconnected-(STM1-Pad2)*%
X137835000Y-104800000D03*
D11*
%TO.P,STM1,1,Pin_1*%
%TO.N,unconnected-(STM1-Pad1)*%
X137835000Y-102260000D03*
%TD*%
%TO.P,BNO55_4P1,1,PS0*%
%TO.N,/GND*%
X136540000Y-85750000D03*
D10*
%TO.P,BNO55_4P1,2,PS1*%
X136540000Y-83210000D03*
%TO.P,BNO55_4P1,3,INT*%
%TO.N,unconnected-(BNO55_4P1-Pad3)*%
X136540000Y-80670000D03*
%TO.P,BNO55_4P1,4,ADR*%
%TO.N,/GND*%
X136540000Y-78130000D03*
%TD*%
D12*
%TO.P,REF2,1*%
%TO.N,N/C*%
X154335000Y-64780000D03*
X154884175Y-66105825D03*
X154884175Y-63454175D03*
X157535825Y-63454175D03*
X158085000Y-64780000D03*
X156210000Y-62905000D03*
X157535825Y-66105825D03*
D13*
X156210000Y-64780000D03*
D12*
X156210000Y-66655000D03*
%TD*%
%TO.P,REF3,1*%
%TO.N,N/C*%
X135945825Y-146105825D03*
X134620000Y-146655000D03*
X133294175Y-143454175D03*
X134620000Y-142905000D03*
X136495000Y-144780000D03*
X133294175Y-146105825D03*
X135945825Y-143454175D03*
X132745000Y-144780000D03*
D13*
X134620000Y-144780000D03*
%TD*%
%TO.P,REF4,1*%
%TO.N,N/C*%
X156210000Y-144780000D03*
D12*
X157535825Y-143454175D03*
X154884175Y-146105825D03*
X156210000Y-146655000D03*
X157535825Y-146105825D03*
X158085000Y-144780000D03*
X154335000Y-144780000D03*
X154884175Y-143454175D03*
X156210000Y-142905000D03*
%TD*%
%TO.P,REF1,1*%
%TO.N,N/C*%
X135945825Y-66105825D03*
X134620000Y-62905000D03*
X135945825Y-63454175D03*
X133294175Y-63454175D03*
D13*
X134620000Y-64780000D03*
D12*
X134620000Y-66655000D03*
X132745000Y-64780000D03*
X136495000Y-64780000D03*
X133294175Y-66105825D03*
%TD*%
D11*
%TO.P,BNO55_6P1,1,VIN*%
%TO.N,Net-(BNO55_6P1-Pad1)*%
X154320000Y-88265000D03*
D10*
%TO.P,BNO55_6P1,2,3v0*%
%TO.N,unconnected-(BNO55_6P1-Pad2)*%
X154320000Y-85725000D03*
%TO.P,BNO55_6P1,3,GND*%
%TO.N,/GND*%
X154320000Y-83185000D03*
%TO.P,BNO55_6P1,4,SDA*%
%TO.N,Net-(BNO55_6P1-Pad4)*%
X154320000Y-80645000D03*
%TO.P,BNO55_6P1,5,SCL*%
%TO.N,Net-(BNO55_6P1-Pad5)*%
X154320000Y-78105000D03*
%TO.P,BNO55_6P1,6,RST*%
%TO.N,unconnected-(BNO55_6P1-Pad6)*%
X154320000Y-75565000D03*
%TD*%
%TO.P,STM2,15,SCL*%
%TO.N,Net-(BNO55_6P1-Pad5)*%
X153075000Y-137820000D03*
%TO.P,STM2,14,SDA*%
%TO.N,Net-(BNO55_6P1-Pad4)*%
X153075000Y-135280000D03*
%TO.P,STM2,13,Pin_13*%
%TO.N,unconnected-(STM2-Pad13)*%
X153075000Y-132740000D03*
%TO.P,STM2,12,Pin_12*%
%TO.N,unconnected-(STM2-Pad12)*%
X153075000Y-130200000D03*
%TO.P,STM2,11,Pin_11*%
%TO.N,unconnected-(STM2-Pad11)*%
X153075000Y-127660000D03*
%TO.P,STM2,10,Pin_10*%
%TO.N,unconnected-(STM2-Pad10)*%
X153075000Y-125120000D03*
%TO.P,STM2,9,Pin_9*%
%TO.N,unconnected-(STM2-Pad9)*%
X153075000Y-122580000D03*
%TO.P,STM2,8,Pin_8*%
%TO.N,unconnected-(STM2-Pad8)*%
X153075000Y-120040000D03*
%TO.P,STM2,7,Pin_7*%
%TO.N,unconnected-(STM2-Pad7)*%
X153075000Y-117500000D03*
%TO.P,STM2,6,Pin_6*%
%TO.N,unconnected-(STM2-Pad6)*%
X153075000Y-114960000D03*
%TO.P,STM2,5,Pin_5*%
%TO.N,unconnected-(STM2-Pad5)*%
X153075000Y-112420000D03*
%TO.P,STM2,4,Pin_4*%
%TO.N,unconnected-(STM2-Pad4)*%
X153075000Y-109880000D03*
%TO.P,STM2,3,Pin_3*%
%TO.N,unconnected-(STM2-Pad3)*%
X153075000Y-107340000D03*
%TO.P,STM2,2,Pin_2*%
%TO.N,unconnected-(STM2-Pad2)*%
X153075000Y-104800000D03*
D11*
%TO.P,STM2,1,Pin_1*%
%TO.N,unconnected-(STM2-Pad1)*%
X153075000Y-102260000D03*
%TD*%
M02*
