%TF.GenerationSoftware,KiCad,Pcbnew,6.0.11-2627ca5db0~126~ubuntu20.04.1*%
%TF.CreationDate,2023-11-11T11:24:04-05:00*%
%TF.ProjectId,carrier-board,63617272-6965-4722-9d62-6f6172642e6b,rev?*%
%TF.SameCoordinates,Original*%
%TF.FileFunction,Soldermask,Top*%
%TF.FilePolarity,Negative*%
%FSLAX46Y46*%
G04 Gerber Fmt 4.6, Leading zero omitted, Abs format (unit mm)*
G04 Created by KiCad (PCBNEW 6.0.11-2627ca5db0~126~ubuntu20.04.1) date 2023-11-11 11:24:04*
%MOMM*%
%LPD*%
G01*
G04 APERTURE LIST*
%ADD10O,1.700000X1.700000*%
%ADD11R,1.700000X1.700000*%
%ADD12C,0.800000*%
%ADD13C,5.000000*%
G04 APERTURE END LIST*
D10*
%TO.C,STM1*%
X137835000Y-137820000D03*
X137835000Y-135280000D03*
X137835000Y-132740000D03*
X137835000Y-130200000D03*
X137835000Y-127660000D03*
X137835000Y-125120000D03*
X137835000Y-122580000D03*
X137835000Y-120040000D03*
X137835000Y-117500000D03*
X137835000Y-114960000D03*
X137835000Y-112420000D03*
X137835000Y-109880000D03*
X137835000Y-107340000D03*
X137835000Y-104800000D03*
D11*
X137835000Y-102260000D03*
%TD*%
%TO.C,BNO55_4P1*%
X136540000Y-85750000D03*
D10*
X136540000Y-83210000D03*
X136540000Y-80670000D03*
X136540000Y-78130000D03*
%TD*%
D12*
%TO.C,REF2*%
X154335000Y-64780000D03*
X154884175Y-66105825D03*
X154884175Y-63454175D03*
X157535825Y-63454175D03*
X158085000Y-64780000D03*
X156210000Y-62905000D03*
X157535825Y-66105825D03*
D13*
X156210000Y-64780000D03*
D12*
X156210000Y-66655000D03*
%TD*%
%TO.C,REF3*%
X135945825Y-146105825D03*
X134620000Y-146655000D03*
X133294175Y-143454175D03*
X134620000Y-142905000D03*
X136495000Y-144780000D03*
X133294175Y-146105825D03*
X135945825Y-143454175D03*
X132745000Y-144780000D03*
D13*
X134620000Y-144780000D03*
%TD*%
%TO.C,REF4*%
X156210000Y-144780000D03*
D12*
X157535825Y-143454175D03*
X154884175Y-146105825D03*
X156210000Y-146655000D03*
X157535825Y-146105825D03*
X158085000Y-144780000D03*
X154335000Y-144780000D03*
X154884175Y-143454175D03*
X156210000Y-142905000D03*
%TD*%
%TO.C,REF1*%
X135945825Y-66105825D03*
X134620000Y-62905000D03*
X135945825Y-63454175D03*
X133294175Y-63454175D03*
D13*
X134620000Y-64780000D03*
D12*
X134620000Y-66655000D03*
X132745000Y-64780000D03*
X136495000Y-64780000D03*
X133294175Y-66105825D03*
%TD*%
D11*
%TO.C,BNO55_6P1*%
X154320000Y-88265000D03*
D10*
X154320000Y-85725000D03*
X154320000Y-83185000D03*
X154320000Y-80645000D03*
X154320000Y-78105000D03*
X154320000Y-75565000D03*
%TD*%
%TO.C,STM2*%
X153075000Y-137820000D03*
X153075000Y-135280000D03*
X153075000Y-132740000D03*
X153075000Y-130200000D03*
X153075000Y-127660000D03*
X153075000Y-125120000D03*
X153075000Y-122580000D03*
X153075000Y-120040000D03*
X153075000Y-117500000D03*
X153075000Y-114960000D03*
X153075000Y-112420000D03*
X153075000Y-109880000D03*
X153075000Y-107340000D03*
X153075000Y-104800000D03*
D11*
X153075000Y-102260000D03*
%TD*%
M02*
