%TF.GenerationSoftware,KiCad,Pcbnew,6.0.11-2627ca5db0~126~ubuntu20.04.1*%
%TF.CreationDate,2023-11-11T11:24:04-05:00*%
%TF.ProjectId,carrier-board,63617272-6965-4722-9d62-6f6172642e6b,rev?*%
%TF.SameCoordinates,Original*%
%TF.FileFunction,Profile,NP*%
%FSLAX46Y46*%
G04 Gerber Fmt 4.6, Leading zero omitted, Abs format (unit mm)*
G04 Created by KiCad (PCBNEW 6.0.11-2627ca5db0~126~ubuntu20.04.1) date 2023-11-11 11:24:04*
%MOMM*%
%LPD*%
G01*
G04 APERTURE LIST*
%TA.AperFunction,Profile*%
%ADD10C,0.100000*%
%TD*%
G04 APERTURE END LIST*
D10*
X134620000Y-61985983D02*
X156210000Y-61976000D01*
X134620000Y-61985983D02*
G75*
G03*
X131826001Y-64770000I0J-2794017D01*
G01*
X159013978Y-64768961D02*
G75*
G03*
X156210000Y-61976000I-2803978J-11039D01*
G01*
X156210000Y-147574000D02*
X134620000Y-147574000D01*
X156210000Y-147574000D02*
G75*
G03*
X159004000Y-144780000I0J2794000D01*
G01*
X131826000Y-144780000D02*
X131826001Y-64770000D01*
X131826000Y-144780000D02*
G75*
G03*
X134620000Y-147574000I2794000J0D01*
G01*
X159013978Y-64768961D02*
X159004000Y-144780000D01*
X136286666Y-64780000D02*
G75*
G03*
X136286666Y-64780000I-1666666J0D01*
G01*
X132120000Y-64780000D02*
X137120000Y-64780000D01*
X134620000Y-62280000D02*
X134620000Y-67280000D01*
X157876666Y-144780000D02*
G75*
G03*
X157876666Y-144780000I-1666666J0D01*
G01*
X153710000Y-144780000D02*
X158710000Y-144780000D01*
X156210000Y-142280000D02*
X156210000Y-147280000D01*
X136286666Y-144780000D02*
G75*
G03*
X136286666Y-144780000I-1666666J0D01*
G01*
X132120000Y-144780000D02*
X137120000Y-144780000D01*
X134620000Y-142280000D02*
X134620000Y-147280000D01*
X157876666Y-64780000D02*
G75*
G03*
X157876666Y-64780000I-1666666J0D01*
G01*
X153710000Y-64780000D02*
X158710000Y-64780000D01*
X156210000Y-62280000D02*
X156210000Y-67280000D01*
M02*
