%TF.GenerationSoftware,KiCad,Pcbnew,6.0.11-2627ca5db0~126~ubuntu20.04.1*%
%TF.CreationDate,2023-11-11T11:24:04-05:00*%
%TF.ProjectId,carrier-board,63617272-6965-4722-9d62-6f6172642e6b,rev?*%
%TF.SameCoordinates,Original*%
%TF.FileFunction,Legend,Top*%
%TF.FilePolarity,Positive*%
%FSLAX46Y46*%
G04 Gerber Fmt 4.6, Leading zero omitted, Abs format (unit mm)*
G04 Created by KiCad (PCBNEW 6.0.11-2627ca5db0~126~ubuntu20.04.1) date 2023-11-11 11:24:04*
%MOMM*%
%LPD*%
G01*
G04 APERTURE LIST*
%ADD10C,0.150000*%
%ADD11C,0.120000*%
G04 APERTURE END LIST*
D10*
X135295714Y-74080714D02*
X135676666Y-74080714D01*
X135438571Y-74747380D02*
X135438571Y-73890238D01*
X135486190Y-73795000D01*
X135581428Y-73747380D01*
X135676666Y-73747380D01*
X136152857Y-74747380D02*
X136057619Y-74699761D01*
X136010000Y-74604523D01*
X136010000Y-73747380D01*
X136438571Y-74080714D02*
X136676666Y-74747380D01*
X136914761Y-74080714D02*
X136676666Y-74747380D01*
X136581428Y-74985476D01*
X136533809Y-75033095D01*
X136438571Y-75080714D01*
X137295714Y-74747380D02*
X137295714Y-74080714D01*
X137295714Y-73747380D02*
X137248095Y-73795000D01*
X137295714Y-73842619D01*
X137343333Y-73795000D01*
X137295714Y-73747380D01*
X137295714Y-73842619D01*
X137771904Y-74080714D02*
X137771904Y-74747380D01*
X137771904Y-74175952D02*
X137819523Y-74128333D01*
X137914761Y-74080714D01*
X138057619Y-74080714D01*
X138152857Y-74128333D01*
X138200476Y-74223571D01*
X138200476Y-74747380D01*
X139105238Y-74080714D02*
X139105238Y-74890238D01*
X139057619Y-74985476D01*
X139010000Y-75033095D01*
X138914761Y-75080714D01*
X138771904Y-75080714D01*
X138676666Y-75033095D01*
X139105238Y-74699761D02*
X139010000Y-74747380D01*
X138819523Y-74747380D01*
X138724285Y-74699761D01*
X138676666Y-74652142D01*
X138629047Y-74556904D01*
X138629047Y-74271190D01*
X138676666Y-74175952D01*
X138724285Y-74128333D01*
X138819523Y-74080714D01*
X139010000Y-74080714D01*
X139105238Y-74128333D01*
X140343333Y-74747380D02*
X140343333Y-74080714D01*
X140343333Y-73747380D02*
X140295714Y-73795000D01*
X140343333Y-73842619D01*
X140390952Y-73795000D01*
X140343333Y-73747380D01*
X140343333Y-73842619D01*
X140771904Y-74699761D02*
X140867142Y-74747380D01*
X141057619Y-74747380D01*
X141152857Y-74699761D01*
X141200476Y-74604523D01*
X141200476Y-74556904D01*
X141152857Y-74461666D01*
X141057619Y-74414047D01*
X140914761Y-74414047D01*
X140819523Y-74366428D01*
X140771904Y-74271190D01*
X140771904Y-74223571D01*
X140819523Y-74128333D01*
X140914761Y-74080714D01*
X141057619Y-74080714D01*
X141152857Y-74128333D01*
X141629047Y-74080714D02*
X141629047Y-74747380D01*
X141629047Y-74175952D02*
X141676666Y-74128333D01*
X141771904Y-74080714D01*
X141914761Y-74080714D01*
X142010000Y-74128333D01*
X142057619Y-74223571D01*
X142057619Y-74747380D01*
X142581428Y-73747380D02*
X142486190Y-73937857D01*
X142867142Y-74080714D02*
X143248095Y-74080714D01*
X143010000Y-73747380D02*
X143010000Y-74604523D01*
X143057619Y-74699761D01*
X143152857Y-74747380D01*
X143248095Y-74747380D01*
X144771904Y-74747380D02*
X144771904Y-73747380D01*
X144771904Y-74699761D02*
X144676666Y-74747380D01*
X144486190Y-74747380D01*
X144390952Y-74699761D01*
X144343333Y-74652142D01*
X144295714Y-74556904D01*
X144295714Y-74271190D01*
X144343333Y-74175952D01*
X144390952Y-74128333D01*
X144486190Y-74080714D01*
X144676666Y-74080714D01*
X144771904Y-74128333D01*
X145676666Y-74747380D02*
X145676666Y-74223571D01*
X145629047Y-74128333D01*
X145533809Y-74080714D01*
X145343333Y-74080714D01*
X145248095Y-74128333D01*
X145676666Y-74699761D02*
X145581428Y-74747380D01*
X145343333Y-74747380D01*
X145248095Y-74699761D01*
X145200476Y-74604523D01*
X145200476Y-74509285D01*
X145248095Y-74414047D01*
X145343333Y-74366428D01*
X145581428Y-74366428D01*
X145676666Y-74318809D01*
X146152857Y-74080714D02*
X146152857Y-74747380D01*
X146152857Y-74175952D02*
X146200476Y-74128333D01*
X146295714Y-74080714D01*
X146438571Y-74080714D01*
X146533809Y-74128333D01*
X146581428Y-74223571D01*
X146581428Y-74747380D01*
X147486190Y-74080714D02*
X147486190Y-74890238D01*
X147438571Y-74985476D01*
X147390952Y-75033095D01*
X147295714Y-75080714D01*
X147152857Y-75080714D01*
X147057619Y-75033095D01*
X147486190Y-74699761D02*
X147390952Y-74747380D01*
X147200476Y-74747380D01*
X147105238Y-74699761D01*
X147057619Y-74652142D01*
X147010000Y-74556904D01*
X147010000Y-74271190D01*
X147057619Y-74175952D01*
X147105238Y-74128333D01*
X147200476Y-74080714D01*
X147390952Y-74080714D01*
X147486190Y-74128333D01*
X148343333Y-74699761D02*
X148248095Y-74747380D01*
X148057619Y-74747380D01*
X147962380Y-74699761D01*
X147914761Y-74604523D01*
X147914761Y-74223571D01*
X147962380Y-74128333D01*
X148057619Y-74080714D01*
X148248095Y-74080714D01*
X148343333Y-74128333D01*
X148390952Y-74223571D01*
X148390952Y-74318809D01*
X147914761Y-74414047D01*
X148819523Y-74747380D02*
X148819523Y-74080714D01*
X148819523Y-74271190D02*
X148867142Y-74175952D01*
X148914761Y-74128333D01*
X149010000Y-74080714D01*
X149105238Y-74080714D01*
X149581428Y-74747380D02*
X149486190Y-74699761D01*
X149438571Y-74652142D01*
X149390952Y-74556904D01*
X149390952Y-74271190D01*
X149438571Y-74175952D01*
X149486190Y-74128333D01*
X149581428Y-74080714D01*
X149724285Y-74080714D01*
X149819523Y-74128333D01*
X149867142Y-74175952D01*
X149914761Y-74271190D01*
X149914761Y-74556904D01*
X149867142Y-74652142D01*
X149819523Y-74699761D01*
X149724285Y-74747380D01*
X149581428Y-74747380D01*
X150771904Y-74080714D02*
X150771904Y-74747380D01*
X150343333Y-74080714D02*
X150343333Y-74604523D01*
X150390952Y-74699761D01*
X150486190Y-74747380D01*
X150629047Y-74747380D01*
X150724285Y-74699761D01*
X150771904Y-74652142D01*
X151200476Y-74699761D02*
X151295714Y-74747380D01*
X151486190Y-74747380D01*
X151581428Y-74699761D01*
X151629047Y-74604523D01*
X151629047Y-74556904D01*
X151581428Y-74461666D01*
X151486190Y-74414047D01*
X151343333Y-74414047D01*
X151248095Y-74366428D01*
X151200476Y-74271190D01*
X151200476Y-74223571D01*
X151248095Y-74128333D01*
X151343333Y-74080714D01*
X151486190Y-74080714D01*
X151581428Y-74128333D01*
%TO.C,G\u002A\u002A*%
G36*
X148464481Y-66375934D02*
G01*
X148436707Y-66404378D01*
X148391133Y-66450602D01*
X148328537Y-66513830D01*
X148249693Y-66593282D01*
X148155377Y-66688182D01*
X148046365Y-66797750D01*
X147923433Y-66921209D01*
X147787356Y-67057781D01*
X147638910Y-67206688D01*
X147478870Y-67367152D01*
X147308013Y-67538395D01*
X147127113Y-67719638D01*
X146936947Y-67910105D01*
X146738291Y-68109016D01*
X146531919Y-68315594D01*
X146318608Y-68529061D01*
X146099133Y-68748638D01*
X145874271Y-68973548D01*
X145790581Y-69057241D01*
X143103422Y-71744374D01*
X143103422Y-70186167D01*
X142559100Y-69638520D01*
X142438848Y-69517332D01*
X142336548Y-69413736D01*
X142250686Y-69326102D01*
X142179748Y-69252802D01*
X142122220Y-69192206D01*
X142076588Y-69142686D01*
X142041338Y-69102613D01*
X142014956Y-69070358D01*
X141995927Y-69044293D01*
X141982738Y-69022788D01*
X141977858Y-69013232D01*
X141934442Y-68896823D01*
X141916074Y-68779895D01*
X141917286Y-68694732D01*
X141939671Y-68569590D01*
X141985959Y-68456574D01*
X142054816Y-68357257D01*
X142144908Y-68273214D01*
X142254898Y-68206017D01*
X142369888Y-68161217D01*
X142423026Y-68145257D01*
X142498704Y-68122687D01*
X142595518Y-68093920D01*
X142712067Y-68059368D01*
X142846950Y-68019442D01*
X142998764Y-67974556D01*
X143166108Y-67925122D01*
X143347580Y-67871552D01*
X143541778Y-67814258D01*
X143747300Y-67753652D01*
X143962744Y-67690148D01*
X144186709Y-67624156D01*
X144417792Y-67556090D01*
X144654592Y-67486362D01*
X144895707Y-67415384D01*
X145139735Y-67343568D01*
X145385274Y-67271326D01*
X145630923Y-67199072D01*
X145875279Y-67127216D01*
X146116940Y-67056173D01*
X146354506Y-66986353D01*
X146586573Y-66918169D01*
X146811741Y-66852033D01*
X147028606Y-66788358D01*
X147235768Y-66727556D01*
X147431825Y-66670039D01*
X147615374Y-66616220D01*
X147785015Y-66566511D01*
X147939344Y-66521324D01*
X148076960Y-66481071D01*
X148196462Y-66446165D01*
X148296447Y-66417018D01*
X148375514Y-66394042D01*
X148432260Y-66377650D01*
X148465285Y-66368254D01*
X148473681Y-66366050D01*
X148464481Y-66375934D01*
G37*
G36*
X148896164Y-66805240D02*
G01*
X148885677Y-66843672D01*
X148868220Y-66905547D01*
X148844203Y-66989476D01*
X148814038Y-67094067D01*
X148778134Y-67217932D01*
X148736901Y-67359679D01*
X148690751Y-67517919D01*
X148640092Y-67691261D01*
X148585337Y-67878316D01*
X148526895Y-68077693D01*
X148465175Y-68288003D01*
X148400590Y-68507856D01*
X148333549Y-68735860D01*
X148264461Y-68970627D01*
X148193739Y-69210766D01*
X148121791Y-69454886D01*
X148049029Y-69701599D01*
X147975863Y-69949514D01*
X147902702Y-70197240D01*
X147829958Y-70443388D01*
X147758041Y-70686568D01*
X147687360Y-70925390D01*
X147618327Y-71158462D01*
X147551351Y-71384397D01*
X147486844Y-71601802D01*
X147425215Y-71809289D01*
X147366874Y-72005467D01*
X147312232Y-72188947D01*
X147261700Y-72358337D01*
X147215688Y-72512248D01*
X147174605Y-72649290D01*
X147138862Y-72768073D01*
X147108871Y-72867207D01*
X147085040Y-72945301D01*
X147067781Y-73000966D01*
X147057503Y-73032811D01*
X147054878Y-73039868D01*
X147013568Y-73103356D01*
X146955910Y-73169333D01*
X146890505Y-73229069D01*
X146825952Y-73273831D01*
X146822609Y-73275678D01*
X146711835Y-73322176D01*
X146593586Y-73347133D01*
X146474516Y-73349893D01*
X146361276Y-73329800D01*
X146340540Y-73323198D01*
X146285385Y-73301432D01*
X146230715Y-73275470D01*
X146203760Y-73260305D01*
X146183501Y-73244123D01*
X146145920Y-73210451D01*
X146092993Y-73161185D01*
X146026697Y-73098223D01*
X145949008Y-73023463D01*
X145861902Y-72938803D01*
X145767357Y-72846139D01*
X145667348Y-72747369D01*
X145605958Y-72686380D01*
X145065143Y-72147900D01*
X143534305Y-72147900D01*
X146214598Y-69467580D01*
X146440979Y-69241228D01*
X146662314Y-69019983D01*
X146877824Y-68804621D01*
X147086730Y-68595919D01*
X147288252Y-68394653D01*
X147481612Y-68201600D01*
X147666031Y-68017537D01*
X147840728Y-67843241D01*
X148004926Y-67679487D01*
X148157845Y-67527052D01*
X148298706Y-67386713D01*
X148426730Y-67259246D01*
X148541138Y-67145429D01*
X148641151Y-67046037D01*
X148725989Y-66961847D01*
X148794874Y-66893636D01*
X148847027Y-66842180D01*
X148881667Y-66808256D01*
X148898017Y-66792640D01*
X148899272Y-66791641D01*
X148896164Y-66805240D01*
G37*
D11*
%TO.C,BNO55_4P1*%
X135210000Y-84480000D02*
X135210000Y-76800000D01*
X136540000Y-87080000D02*
X135210000Y-87080000D01*
X135210000Y-87080000D02*
X135210000Y-85750000D01*
X137870000Y-84480000D02*
X137870000Y-76800000D01*
X137870000Y-84480000D02*
X135210000Y-84480000D01*
X137870000Y-76800000D02*
X135210000Y-76800000D01*
%TO.C,BNO55_6P1*%
X155650000Y-74235000D02*
X152990000Y-74235000D01*
X152990000Y-86995000D02*
X152990000Y-74235000D01*
X152990000Y-89595000D02*
X152990000Y-88265000D01*
X154320000Y-89595000D02*
X152990000Y-89595000D01*
X155650000Y-86995000D02*
X152990000Y-86995000D01*
X155650000Y-86995000D02*
X155650000Y-74235000D01*
%TD*%
M02*
