M48
; DRILL file {KiCad 6.0.11-2627ca5db0~126~ubuntu20.04.1} date Sat 11 Nov 2023 11:24:11 AM EST
; FORMAT={-:-/ absolute / metric / decimal}
; #@! TF.CreationDate,2023-11-11T11:24:11-05:00
; #@! TF.GenerationSoftware,Kicad,Pcbnew,6.0.11-2627ca5db0~126~ubuntu20.04.1
; #@! TF.FileFunction,MixedPlating,1,2
FMAT,2
METRIC
; #@! TA.AperFunction,Plated,PTH,ComponentDrill
T1C0.500
; #@! TA.AperFunction,Plated,PTH,ComponentDrill
T2C1.000
; #@! TA.AperFunction,Plated,PTH,ComponentDrill
T3C2.500
%
G90
G05
T1
X132.745Y-64.78
X132.745Y-144.78
X133.294Y-63.454
X133.294Y-66.106
X133.294Y-143.454
X133.294Y-146.106
X134.62Y-62.905
X134.62Y-66.655
X134.62Y-142.905
X134.62Y-146.655
X135.946Y-63.454
X135.946Y-66.106
X135.946Y-143.454
X135.946Y-146.106
X136.495Y-64.78
X136.495Y-144.78
X154.335Y-64.78
X154.335Y-144.78
X154.884Y-63.454
X154.884Y-66.106
X154.884Y-143.454
X154.884Y-146.106
X156.21Y-62.905
X156.21Y-66.655
X156.21Y-142.905
X156.21Y-146.655
X157.536Y-63.454
X157.536Y-66.106
X157.536Y-143.454
X157.536Y-146.106
X158.085Y-64.78
X158.085Y-144.78
T2
X136.54Y-78.13
X136.54Y-80.67
X136.54Y-83.21
X136.54Y-85.75
X137.835Y-102.26
X137.835Y-104.8
X137.835Y-107.34
X137.835Y-109.88
X137.835Y-112.42
X137.835Y-114.96
X137.835Y-117.5
X137.835Y-120.04
X137.835Y-122.58
X137.835Y-125.12
X137.835Y-127.66
X137.835Y-130.2
X137.835Y-132.74
X137.835Y-135.28
X137.835Y-137.82
X153.075Y-102.26
X153.075Y-104.8
X153.075Y-107.34
X153.075Y-109.88
X153.075Y-112.42
X153.075Y-114.96
X153.075Y-117.5
X153.075Y-120.04
X153.075Y-122.58
X153.075Y-125.12
X153.075Y-127.66
X153.075Y-130.2
X153.075Y-132.74
X153.075Y-135.28
X153.075Y-137.82
X154.32Y-75.565
X154.32Y-78.105
X154.32Y-80.645
X154.32Y-83.185
X154.32Y-85.725
X154.32Y-88.265
T3
X134.62Y-64.78
X134.62Y-144.78
X156.21Y-64.78
X156.21Y-144.78
T0
M30
